<svg xmlns="http://www.w3.org/2000/svg" viewBox="0 0 800 1000" width="800" height="1000" preserveAspectRatio="xMidYMid slice"><defs><linearGradient id="bg" x1="0" y1="0" x2="0" y2="1"><stop offset="0" stop-color="#b9c09a"/><stop offset="1" stop-color="#3f4a2a"/></linearGradient></defs><rect width="800" height="1000" fill="url(#bg)"/><circle cx="300.9" cy="300" r="64" fill="#f5f0e8" opacity=".7"/><path d="M0,680 L0,603.6 L50,629.3 L100,660.5 L150,677.6 L200,625.7 L250,553.2 L300,504.6 L350,514.3 L400,561.1 L450,611.6 L500,646.1 L550,670 L600,700.9 L650,747.7 L700,809.3 L750,829.3 L800,795.9 L850,734.5 L800,1000 L0,1000Z" fill="#59663a" opacity=".85"/><path d="M0,820 L0,796.3 L50,797.4 L100,805 L150,856.5 L200,920.1 L250,955 L300,939.4 L350,895.4 L400,856 L450,840.5 L500,840 L550,825 L600,793.3 L650,762.1 L700,756.2 L750,778.5 L800,817 L850,827.2 L800,1000 L0,1000Z" fill="#2f381d"/><path transform="translate(380 550)" d="M20,36 C20,36 0,22 0,10 C0,2 10,-2 20,8 C30,-2 40,2 40,10 C40,22 20,36 20,36Z" fill="#f5f0e8" opacity=".85"/><text x="400" y="966" text-anchor="middle" font-family="Georgia,serif" font-size="24" letter-spacing="7" fill="#f5f0e8" opacity=".9">THE PROPOSAL</text></svg>