<svg xmlns="http://www.w3.org/2000/svg" viewBox="0 0 260 300" width="260" height="300" ><defs>
  <linearGradient id="pet" x1="0" y1="1" x2="0" y2="0"><stop offset="0" stop-color="#d3c4b7"/><stop offset=".25" stop-color="#fbf8ef"/><stop offset="1" stop-color="#ffffff"/></linearGradient>
  <linearGradient id="pet2" x1="0" y1="1" x2="0" y2="0"><stop offset="0" stop-color="#cbbaac"/><stop offset=".3" stop-color="#f6f0e0"/><stop offset="1" stop-color="#fffdf8"/></linearGradient>
  <linearGradient id="leaf" x1="0" y1="0" x2="1" y2="0"><stop offset="0" stop-color="#342a22"/><stop offset="1" stop-color="#66574a"/></linearGradient>
  <radialGradient id="lip" cx=".5" cy=".4" r=".6"><stop offset="0" stop-color="#e2c07a"/><stop offset="1" stop-color="#b3813c"/></radialGradient>
</defs><g transform="translate(20 290) rotate(-83.6)"><path d="M0,0 C48.1,-24.1 120.3,-16 160.4,0 C120.3,16 48.1,24.1 0,0Z" fill="url(#leaf)"/><path d="M0,0 L147.6,0" stroke="#958475" stroke-width="1" opacity=".6"/></g><g transform="translate(20 290) rotate(-70.2)"><path d="M0,0 C57.9,-29 144.9,-19.3 193.2,0 C144.9,19.3 57.9,29 0,0Z" fill="url(#leaf)"/><path d="M0,0 L177.7,0" stroke="#958475" stroke-width="1" opacity=".6"/></g><g transform="translate(20 290) rotate(-53.7)"><path d="M0,0 C53.4,-26.7 133.5,-17.8 178,0 C133.5,17.8 53.4,26.7 0,0Z" fill="url(#leaf)"/><path d="M0,0 L163.7,0" stroke="#958475" stroke-width="1" opacity=".6"/></g><g transform="translate(20 290) rotate(-39.5)"><path d="M0,0 C74.2,-37.1 185.6,-24.7 247.4,0 C185.6,24.7 74.2,37.1 0,0Z" fill="url(#leaf)"/><path d="M0,0 L227.6,0" stroke="#958475" stroke-width="1" opacity=".6"/></g><g transform="translate(20 290) rotate(-28.3)"><path d="M0,0 C70.8,-35.4 177,-23.6 236,0 C177,23.6 70.8,35.4 0,0Z" fill="url(#leaf)"/><path d="M0,0 L217.1,0" stroke="#958475" stroke-width="1" opacity=".6"/></g><g transform="translate(20 290) rotate(-12.5)"><path d="M0,0 C45.7,-22.8 114.2,-15.2 152.3,0 C114.2,15.2 45.7,22.8 0,0Z" fill="url(#leaf)"/><path d="M0,0 L140.1,0" stroke="#958475" stroke-width="1" opacity=".6"/></g><g transform="translate(195.2 189.4) rotate(66.3) scale(0.5)" stroke-linejoin="round" stroke="#ddd5c0" stroke-width=".9"><path d="M0,0 C-11,-14 -12,-44 0,-70 C12,-44 11,-14 0,0Z" fill="url(#pet)"/><path d="M0,0 C-11,-14 -12,-44 0,-70 C12,-44 11,-14 0,0Z" transform="rotate(140)" fill="url(#pet)"/><path d="M0,0 C-11,-14 -12,-44 0,-70 C12,-44 11,-14 0,0Z" transform="rotate(-140)" fill="url(#pet)"/><path d="M0,0 C-30,-8 -46,-50 -2,-66 C36,-52 28,-8 0,0Z" transform="rotate(-58)" fill="url(#pet2)"/><path d="M0,0 C-30,-8 -46,-50 -2,-66 C36,-52 28,-8 0,0Z" transform="rotate(58)" fill="url(#pet2)"/><path d="M0,0 C-20,8 -22,34 0,38 C22,34 20,8 0,0Z" transform="rotate(180) scale(1)" fill="url(#pet)"/><path d="M-7,8 C-10,20 -4,28 0,28 C4,28 10,20 7,8Z" transform="rotate(180)" fill="url(#lip)" stroke="none"/><circle r="5" fill="#e6d8a5" stroke="none"/></g><g transform="translate(96.3 110.5) rotate(13.7) scale(0.5)" stroke-linejoin="round"><path d="M0,0 C-16,-18 -22,-52 0,-88 C22,-52 16,-18 0,0Z" transform="rotate(0) scale(1.05)" fill="url(#pet)" stroke="#dcd3bd" stroke-width=".9"/><path d="M0,-8 L0,-72" transform="rotate(0)" stroke="#cfc6a8" stroke-width=".8" opacity=".7"/><path d="M0,0 C-16,-18 -22,-52 0,-88 C22,-52 16,-18 0,0Z" transform="rotate(120) scale(1.05)" fill="url(#pet)" stroke="#dcd3bd" stroke-width=".9"/><path d="M0,-8 L0,-72" transform="rotate(120)" stroke="#cfc6a8" stroke-width=".8" opacity=".7"/><path d="M0,0 C-16,-18 -22,-52 0,-88 C22,-52 16,-18 0,0Z" transform="rotate(240) scale(1.05)" fill="url(#pet)" stroke="#dcd3bd" stroke-width=".9"/><path d="M0,-8 L0,-72" transform="rotate(240)" stroke="#cfc6a8" stroke-width=".8" opacity=".7"/><path d="M0,0 C-16,-18 -22,-52 0,-88 C22,-52 16,-18 0,0Z" transform="rotate(60)" fill="url(#pet2)" stroke="#e2dac6" stroke-width=".9"/><path d="M0,-8 L0,-66" transform="rotate(60)" stroke="#d3cbb0" stroke-width=".8" opacity=".7"/><path d="M0,0 C-16,-18 -22,-52 0,-88 C22,-52 16,-18 0,0Z" transform="rotate(180)" fill="url(#pet2)" stroke="#e2dac6" stroke-width=".9"/><path d="M0,-8 L0,-66" transform="rotate(180)" stroke="#d3cbb0" stroke-width=".8" opacity=".7"/><path d="M0,0 C-16,-18 -22,-52 0,-88 C22,-52 16,-18 0,0Z" transform="rotate(300)" fill="url(#pet2)" stroke="#e2dac6" stroke-width=".9"/><path d="M0,-8 L0,-66" transform="rotate(300)" stroke="#d3cbb0" stroke-width=".8" opacity=".7"/><circle r="9" fill="#cdbbab" opacity=".85"/><line x1="0" y1="0" x2="6.6" y2="-37.4" stroke="#bfae82" stroke-width="1.2"/><ellipse cx="6.6" cy="-37.4" rx="2.6" ry="5.5" transform="rotate(10 6.6 -37.4)" fill="#b9793a"/><line x1="0" y1="0" x2="32.8" y2="-8.8" stroke="#bfae82" stroke-width="1.2"/><ellipse cx="32.8" cy="-8.8" rx="2.6" ry="5.5" transform="rotate(75 32.8 -8.8)" fill="#b9793a"/><line x1="0" y1="0" x2="29.1" y2="24.4" stroke="#bfae82" stroke-width="1.2"/><ellipse cx="29.1" cy="24.4" rx="2.6" ry="5.5" transform="rotate(130 29.1 24.4)" fill="#b9793a"/><line x1="0" y1="0" x2="-8.8" y2="32.8" stroke="#bfae82" stroke-width="1.2"/><ellipse cx="-8.8" cy="32.8" rx="2.6" ry="5.5" transform="rotate(195 -8.8 32.8)" fill="#b9793a"/><line x1="0" y1="0" x2="-35.7" y2="13" stroke="#bfae82" stroke-width="1.2"/><ellipse cx="-35.7" cy="13" rx="2.6" ry="5.5" transform="rotate(250 -35.7 13)" fill="#b9793a"/><line x1="0" y1="0" x2="-27" y2="-32.2" stroke="#bfae82" stroke-width="1.2"/><ellipse cx="-27" cy="-32.2" rx="2.6" ry="5.5" transform="rotate(320 -27 -32.2)" fill="#b9793a"/></g><g transform="translate(64.2 92.8) rotate(12.6) scale(0.4)"><path d="M0,0 C-10,-14 -10,-40 0,-64 C10,-40 10,-14 0,0Z" fill="url(#pet)" stroke="#dcd3bd" stroke-width=".9"/><path d="M0,0 C-5,-8 -6,-20 0,-30 C6,-20 5,-8 0,0Z" fill="#c5b3a3" opacity=".7"/></g><g transform="translate(178.6 121.4) rotate(43.3) scale(0.4)"><path d="M0,0 C-10,-14 -10,-40 0,-64 C10,-40 10,-14 0,0Z" fill="url(#pet)" stroke="#dcd3bd" stroke-width=".9"/><path d="M0,0 C-5,-8 -6,-20 0,-30 C6,-20 5,-8 0,0Z" fill="#c5b3a3" opacity=".7"/></g><g transform="translate(168.4 133.3) rotate(43.4) scale(0.4)"><path d="M0,0 C-10,-14 -10,-40 0,-64 C10,-40 10,-14 0,0Z" fill="url(#pet)" stroke="#dcd3bd" stroke-width=".9"/><path d="M0,0 C-5,-8 -6,-20 0,-30 C6,-20 5,-8 0,0Z" fill="#c5b3a3" opacity=".7"/></g></svg>